<svg xmlns="http://www.w3.org/2000/svg" viewBox="0 0 15 15">
    <defs>
        <style>.cls-1{fill:lime;}</style>
    </defs>
    <title>景观综合</title>
    <g id="图层_2" data-name="图层 2">
        <g id="图层_13" data-name="图层 13">
            <path class="cls-1"
                  d="M12.7.58A1.73,1.73,0,0,1,14.42,2.3V12.7a1.73,1.73,0,0,1-1.72,1.72H2.3A1.73,1.73,0,0,1,.58,12.7V2.3A1.73,1.73,0,0,1,2.3.58H12.7m0-.58H2.3A2.31,2.31,0,0,0,0,2.3V12.7A2.31,2.31,0,0,0,2.3,15H12.7A2.31,2.31,0,0,0,15,12.7V2.3A2.31,2.31,0,0,0,12.7,0Z"/>
            <path class="cls-1"
                  d="M11.32,1.59H3.68A2.1,2.1,0,0,0,1.59,3.68v7.64a2.1,2.1,0,0,0,2.09,2.09h7.64a2.1,2.1,0,0,0,2.09-2.09V3.68A2.1,2.1,0,0,0,11.32,1.59Zm-.05,8.82H7.92v.83a.42.42,0,0,1-.42.42h0a.42.42,0,0,1-.42-.42v-.83H3.73a.18.18,0,0,1-.12-.32L6.55,7.6H4.75a.19.19,0,0,1-.12-.33L6.9,5.35H5.56A.18.18,0,0,1,5.44,5L7.38,3.38a.18.18,0,0,1,.24,0L9.56,5a.18.18,0,0,1-.12.32H8.1l2.27,1.92a.19.19,0,0,1-.12.33H8.45l2.94,2.49A.18.18,0,0,1,11.27,10.41Z"/>
        </g>
    </g>
</svg>