<svg xmlns="http://www.w3.org/2000/svg" viewBox="0 0 15 15">
    <defs>
        <style>.cls-1{fill:#ff0;}</style>
    </defs>
    <title>河道断面</title>
    <g id="图层_2" data-name="图层 2">
        <g id="图层_13" data-name="图层 13">
            <path class="cls-1"
                  d="M12.7.58A1.73,1.73,0,0,1,14.42,2.3V12.7a1.73,1.73,0,0,1-1.72,1.72H2.3A1.73,1.73,0,0,1,.58,12.7V2.3A1.73,1.73,0,0,1,2.3.58H12.7m0-.58H2.3A2.31,2.31,0,0,0,0,2.3V12.7A2.31,2.31,0,0,0,2.3,15H12.7A2.31,2.31,0,0,0,15,12.7V2.3A2.31,2.31,0,0,0,12.7,0Z"/>
            <path class="cls-1"
                  d="M11.32,1.59H3.68A2.1,2.1,0,0,0,1.59,3.68v7.64a2.1,2.1,0,0,0,2.09,2.09h7.64a2.1,2.1,0,0,0,2.09-2.09V3.68A2.1,2.1,0,0,0,11.32,1.59Zm-5,9.33H2.94v-.61H6.31Zm0-.92H2.94V9.39H6.31Zm0-1.07H2.94V8.32H6.31Zm0-.91H2.94V7.4H6.31ZM6.31,7H2.94V6.33H6.31Zm.45,4V3.73h.71l1.76,7.19Zm6,.08c-.31-.05-.52-.26-1-.16a2.21,2.21,0,0,1-.95.1,1.6,1.6,0,0,0-.61-.1,4.09,4.09,0,0,0-.54.16c0-.19-.1-.36-.15-.54a2.36,2.36,0,0,0,.46,0,2.18,2.18,0,0,1,.76-.15,2.52,2.52,0,0,0,.69.15c.22,0,.52-.26.8-.15a1.91,1.91,0,0,0,.49.15Zm0-1c-.46,0-.6-.27-1-.15-.17.05-.46.26-.79.15a3,3,0,0,0-.69-.15,7.45,7.45,0,0,0-.77.15c0-.2,0-.41-.07-.61a2,2,0,0,0,.53.08,2.77,2.77,0,0,1,.78-.11c.25.05.4.21.68.12a2.16,2.16,0,0,1,.94-.17c.25.07.26.14.42.16Z"/>
        </g>
    </g>
</svg>