<svg xmlns="http://www.w3.org/2000/svg" viewBox="0 0 15 15">
    <defs>
        <style>.cls-1{fill:#f15a24;}</style>
    </defs>
    <title>市政污水厂</title>
    <g id="图层_2" data-name="图层 2">
        <g id="图层_13" data-name="图层 13">
            <path class="cls-1"
                  d="M12.7.58A1.73,1.73,0,0,1,14.42,2.3V12.7a1.73,1.73,0,0,1-1.72,1.72H2.3A1.73,1.73,0,0,1,.58,12.7V2.3A1.73,1.73,0,0,1,2.3.58H12.7m0-.58H2.3A2.31,2.31,0,0,0,0,2.3V12.7A2.31,2.31,0,0,0,2.3,15H12.7A2.31,2.31,0,0,0,15,12.7V2.3A2.31,2.31,0,0,0,12.7,0Z"/>
            <path class="cls-1"
                  d="M11.32,1.59H3.68A2.1,2.1,0,0,0,1.59,3.68v7.64a2.1,2.1,0,0,0,2.09,2.09h7.64a2.1,2.1,0,0,0,2.09-2.09V3.68A2.1,2.1,0,0,0,11.32,1.59Zm-7,2.72a4.5,4.5,0,0,1,5.92-.37L3.94,10.23A4.5,4.5,0,0,1,4.31,4.31Zm6.38,6.38a4.49,4.49,0,0,1-5.89.39L11.08,4.8A4.49,4.49,0,0,1,10.69,10.69Z"/>
        </g>
    </g>
</svg>